# xmcd
#
# Track frame offsets:
#	150
#	15638
#	30225
#	46838
#	65100
#	79875
#	93525
#	108863
#	123488
#	143064
#	160276
#	175125
#
# Disc length: 2532 seconds
#
# Revision: 1
# Processed by: cddbd v1.5.1PL2 Copyright (c) Steve Scherf et al.
# Submitted via: EasyCDDAExtractor 9.1.0.1
#
DISCID=9609e20c
DTITLE=Claire Lynch - New Day
DYEAR=2006
DGENRE=Bluegrass
TTITLE0=Be Ready To Sail
TTITLE1=Train Long Gone
TTITLE2=Love Will Find You Again
TTITLE3=Up This Hill And Down
TTITLE4=Down In The Valley
TTITLE5=Fallin' In Love
TTITLE6=Long After I'm Gone
TTITLE7=Leavin' On That Evening Train
TTITLE8=Only Passing Through
TTITLE9=White Train
TTITLE10=River Of Dreams
TTITLE11=I Believe In Forever
EXTD=
EXTT0=
EXTT1=
EXTT2=
EXTT3=
EXTT4=
EXTT5=
EXTT6=
EXTT7=
EXTT8=
EXTT9=
EXTT10=
EXTT11=
PLAYORDER=
